# xmcd
#
# Track frame offsets:
#	182
#	12790
#	36512
#	53152
#	71070
#	90127
#	106532
#	122755
#	138240
#	155575
#	170875
#	189405
#	210805
#	227380
#	242152
#	260472
#	275532
#	295515
#	315240
#	330685
#
# Disc length: 4664 seconds
#
# Revision: 2
# Processed by: cddbd v1.5.1PL0 Copyright (c) Steve Scherf et al.
# Submitted via: audiograbber 1.83.01
#
DISCID=07123614
DTITLE=Various Artist - 10 Soul Stars - Vol. 1
DYEAR=1993
DGENRE=Soul
TTITLE0=James Brown - It's a Man's Man's World
TTITLE1=James Brown - Get Up (I Feel Like Being A) Sex Machine
TTITLE2=Emotions - Best Of My Love
TTITLE3=Emotions - I Don't Want To Loose Your Love
TTITLE4=Caron Wheeler - Don't quit
TTITLE5=Caron Wheeler - Livin In The Light
TTITLE6=Junior - Mama Used To Say
TTITLE7=Junior - Too Late
TTITLE8=Jermaine Jackson - Sweetest Sweetest
TTITLE9=Jermaine Jackson - Do What You Do
TTITLE10=Billy Ocean - Caribbean Queen
TTITLE11=Billy Ocean - Get Out Of My Dreams
TTITLE12=Harold Melvin - Wake Up Everybody
TTITLE13=Harold Melvin - Satisfaction Guaranteed
TTITLE14=Ruby Turner - I'd Rather Go Blind
TTITLE15=Ruby Turner - Signed, Sealed, Delivered I'm Yours
TTITLE16=Luther Vandross - I Really Did'nt Mean It
TTITLE17=Luther Vandross - Stop To Love
TTITLE18=Dionne Warwick - All The Love In The World
TTITLE19=Dionne Warwick - Heartbreaker
EXTD=
EXTT0=
EXTT1=
EXTT2=
EXTT3=
EXTT4=
EXTT5=
EXTT6=
EXTT7=
EXTT8=
EXTT9=
EXTT10=
EXTT11=
EXTT12=
EXTT13=
EXTT14=
EXTT15=
EXTT16=
EXTT17=
EXTT18=
EXTT19=
PLAYORDER=
